<?xml version="1.0" standalone="no"?>
<!DOCTYPE svg PUBLIC "-//W3C//DTD SVG 1.1//EN" "http://www.w3.org/Graphics/SVG/1.1/DTD/svg11.dtd">
<svg xmlns="http://www.w3.org/2000/svg" xmlns:svgjs="http://svgjs.com/svgjs" xmlns:xlink="http://www.w3.org/1999/xlink" width="288" height="288" viewBox="0 0 288 288"><svg xmlns="http://www.w3.org/2000/svg" width="288" height="288" version="1.0" viewBox="0 0 200 241"><g fill="#de7c36" class="color000 svgShape" transform="matrix(.1 0 0 -.1 0 241)"><path d="M1200 2350c20-13 33-13 25 0-3 6-14 10-23 10-15 0-15-2-2-10zM1118 2328c5-5 16-8 23-6 8 3 3 7-10 11-17 4-21 3-13-5zM1046 2301c14-13 104-24 104-13 0 14-26 22-73 22-24 0-37-4-31-9zM1255 2280c-3-6 1-7 9-4 18 7 21 14 7 14-6 0-13-4-16-10zM1138 2253c7-3 16-2 19 1 4 3-2 6-13 5-11 0-14-3-6-6zM1270 2214c0-9 5-14 12-12 18 6 21 28 4 28-9 0-16-7-16-16zM1387 2223c-3-5-2-15 4-23 13-22 12-24-21-43-23-14-30-15-30-4 0 7-7 22-15 33-15 19-16 19-13-1 2-13-4-20-17-23-33-5-75-24-75-33 0-5 8-6 18-3 15 5 16 4 1-8-10-8-18-35-21-73-3-33-8-67-12-76-7-16 11-43 36-52 10-4 10-7 1-18-10-10-17-10-39 1-23 13-27 13-38-2-7-9-25-18-41-21l-30-4 28-2c21-1 27-6 27-23 1-24 45-80 77-96 30-15 82-22 88-12 3 6 0 10-7 10-7 1-2 7 12 15 23 13 24 14 4 15-12 0-47 14-78 30-54 29-69 29-43 0 6-8 2-6-11 5-32 26-24 36 33 41 42 3 53 0 66-18 9-11 21-18 26-15 10 7 33 80 39 126 6 44 44 55 44 13 0-9 7-26 15-36 22-29 18-39-11-32-20 5-27 3-31-14-3-11-9-20-14-20-5 0-6-6-3-14 3-8 15-11 31-8 18 3 30-1 40-13 7-11 13-14 13-8 0 5 11 8 24 6 13-3 27 0 30 6 5 7-1 11-14 11-16 0-21 5-18 23 2 16 13 24 41 31 35 9 51 26 25 26-40 0-86 22-97 46-12 26-11 26 24 20 41-8 48 11 15 44-19 19-57 29-46 11 3-4-6-6-21-3-20 4-24 2-19-9 4-8 1-5-8 5-8 10-13 23-9 29 3 5 9 3 14-4 7-11 9-11 9 2 0 22 64 62 123 79 51 14 66 7 67-30 0-12 2-12 16 1 18 18 10 69-11 69-7 0-22 3-32 6-15 5-15 4-3-5 12-8 4-11-32-11-28 0-48-5-51-12-4-10-6-9-6 1-1 8-9 20-18 27-16 12-16 13 7 9 14-3 9 1-10 7-19 6-38 16-41 21-4 5-9 5-12 0zm-97-87c0-2-7-9-15-16-12-10-15-10-15 4 0 9 7 16 15 16 8 0 15-2 15-4zM1190 2190c-8-5-10-10-5-10 6 0 17 5 25 10 8 5 11 10 5 10-5 0-17-5-25-10zM292 2153c-18-2-30-8-27-13 8-13-13-50-27-50-6 0-19 7-29 16-16 14-18 14-24-7-5-14-3-25 4-27 19-6 12-22-9-22-11 0-20 4-20 8 0 9-44 32-59 32-15 0-41-80-35-105 3-14 10-22 15-19 5 3 9-2 9-11 0-13 4-14 21-5 16 9 25 8 42-6 12-10 16-12 10-4-18 19-16 35 1 21 12-10 20-9 40 4 14 9 30 14 36 10 5-3 10-1 10 5 0 6 4 9 10 5 5-3 26 4 47 15 40 21 63 25 63 11 0-5 8-7 18-4 10 2 24-3 31-11 15-18 39-20 60-7 11 7 8 16-19 43-19 18-38 32-43 30-4-1-5 2-2 8 4 7-2 14-14 17-16 4-20 11-16 24 4 11 2 19-5 19-6 0-9-4-6-8 2-4-4-13-14-20-12-7-21-8-25-2-4 6-11 8-16 5-5-4-9-1-9 4 0 6 4 11 10 11 5 0 6 7 3 17-5 12-3 14 7 8 9-5 11-4 6 3-4 7-8 11-9 10-1 0-17-3-35-5zm163-144c11-17-1-21-15-4-8 9-8 15-2 15 6 0 14-5 17-11z" class="color000 svgShape"/><path d="M340 2120c0-5 5-10 10-10 6 0 10 5 10 10 0 6-4 10-10 10-5 0-10-4-10-10zM1540 2123c0-6 8-17 18-24 16-13 16-13 2 6-8 11-16 22-17 24-2 2-3 0-3-6zM1487 2093c-11-10 13-33 34-33 22 0 24 11 7 28-13 13-31 16-41 5zM340 1916c0-7-7-19-15-26-15-12-11-35 5-25 13 8 30 65 19 65-5 0-9-6-9-14zM120 1889c0-11-5-17-10-14-6 4-8 11-5 16 4 5 1 9-4 9-13 0-14-20-1-40 8-13 11-12 23 5 8 10 13 25 10 32-7 19-13 16-13-8zM306 1823c4-16 11-32 15-37 5-6 9-21 9-34 0-19-4-23-17-18-10 4-14 4-10-1 13-12 81-11 89 1 4 6 8 26 8 43 0 35-22 55-73 67-26 6-27 5-21-21zm64-18c14-17 5-69-10-60-6 4-8 11-4 16 3 6-2 16-12 23-9 7-14 18-10 24 10 16 21 15 36-3zM1781 1819c12-19 28-38 34-42 6-5 1-7-11-4-12 2-28 1-35-4-7-4-21-3-31 2-12 6-18 6-18-1 0-5 6-10 13-10 8 0 24-11 37-25 13-14 31-25 40-25 22 0 62-38 54-51-3-6-17-8-30-5-28 7-30 1-9-21 8-8 13-19 10-24-4-5 0-7 7-4 8 3 19-8 27-26 13-29 12-33-4-45-16-12-21-10-42 13-18 19-24 34-21 55 4 28 3 29-21 21-14-4-51-7-81-5-52 2-55 0-55-22 0-13 3-22 8-19 4 2 7-3 7-11 0-9 5-16 11-16 8 0 7-5-1-16-11-13-10-16 8-21 12-3 22-9 22-14 0-4 18-7 39-6 22 0 37 5 35 9-3 4 2 8 11 8 9 0 13-4 10-10-4-6 7-10 24-10 20 0 31 5 31 14 0 16 24 28 44 20 8-3 17 0 21 5 3 6 10 9 15 6 11-7 0 36-14 55-20 28-36 60-36 74 0 8 6 16 13 19 6 2 0 8-15 12-16 4-28 11-28 17 0 5 8 7 19 3 14-4 20 0 25 17 11 41 7 50-15 43-18-6-20-4-15 13 6 17 3 19-14 15-16-4-23 0-27 16-3 12-11 20-17 18-6-2-20 0-30 6-17 8-16 5 5-24zM982 1808c-29-32-52-78-52-107 0-13-16-41-35-62-19-22-35-43-35-49 0-5-19-14-42-20-66-17-126-52-154-87-14-18-32-33-40-33-7 0-14-4-14-9 0-5-9-13-21-16-11-4-18-9-15-12 2-3 20 2 38 11 31 16 33 16 45-1 24-32 15-52-35-77-19-10-32-20-29-22 3-3 32 9 66 25 34 17 61 29 61 26 0-12 109 51 167 96 65 51 99 61 105 32 3-12 9-4 17 22 7 22 20 51 28 64 8 13 10 20 4 17-7-4-11 1-11 12 0 11-12 45-26 76-25 56-29 113-7 109 6-1 14 4 17 12 8 22-8 18-32-7zM1398 1803c7-3 16-2 19 1 4 3-2 6-13 5-11 0-14-3-6-6zM1445 1800c-3-6 1-7 9-4 18 7 21 14 7 14-6 0-13-4-16-10z" class="color000 svgShape"/><path d="M993 1775c0-8 4-12 9-9 5 3 6 10 3 15-9 13-12 11-12-6zM1400 1779c0-5 5-7 10-4 6 3 10 8 10 11 0 2-4 4-10 4-5 0-10-5-10-11zM1002 1730c0-14 2-19 5-12 2 6 2 18 0 25-3 6-5 1-5-13zM350 1703c0-9 11-31 25-48 27-36 22-55-7-28-12 11-18 12-18 4 0-7 13-18 29-24 19-7 32-20 36-36 4-15 18-49 31-77 14-28 26-61 27-73 1-11 6-21 12-21 5 0 2-6-7-13-15-12-15-16-3-38 8-13 18-32 21-42 4-10 17-23 30-28 20-7 24-16 24-48 0-31 5-43 21-51 49-27 64 13 24 66-14 18-25 37-24 41 2 15-13 53-22 53-5 0-9 6-9 14 0 8-5 16-12 18-7 3-9 12-5 22 4 9 11 15 15 12 5-3 7 6 4 20-4 21-9 24-28 20-38-10-62 57-67 189-2 49-2 49-49 67-44 16-48 16-48 1zm78-62c4-40-11-34-27 10-9 27-8 30 7 27 11-2 18-15 20-37zM1820 1686c0-8 5-18 10-21 6-3 10 1 10 9 0 8-4 18-10 21-5 3-10-1-10-9zM1070 1650c0-5 5-10 10-10 6 0 10 5 10 10 0 6-4 10-10 10-5 0-10-4-10-10zM1060 1580c0-5 5-10 11-10 5 0 7 5 4 10-3 6-8 10-11 10-2 0-4-4-4-10zM1570 1580c0-5 5-10 11-10 5 0 7 5 4 10-3 6-8 10-11 10-2 0-4-4-4-10zM1620 1556c0-2 7-9 15-16 9-7 15-8 15-2 0 5-7 12-15 16-8 3-15 4-15 2zM1126 1534c-9-8-16-18-16-20 0-9 43 8 58 22 11 12 10 14-7 14-11 0-27-7-35-16zM1915 1510c-3-5-1-10 4-10 6 0 11 5 11 10 0 6-2 10-4 10-3 0-8-4-11-10zM1020 1500c-9-6-10-10-3-10 6 0 15 5 18 10 8 12 4 12-15 0zM1075 1475c-30-14-30-14-4-15 14 0 34 7 45 15 25 19 1 19-41 0zM980 1424c14-10 28-23 32-28 5-7 8-7 8 2 0 6 7 12 15 12 21 0 19-13-5-27-16-11-21-10-28 3-7 13-13 14-30 5-27-14-34-14-30 2 2 7-1 15-7 17-5 3-11-12-13-32-2-24-8-38-17-38-8 0-13-12-12-34 1-26 7-38 28-50 34-20 36-20 42 4 4 15 0 19-16 17-16-1-23 4-25 20-5 32 35 40 79 15 45-26 103-39 97-21-7 20-40 36-45 22-3-9-11-6-26 7-19 18-20 22-5 36 8 8 34 18 57 21 33 5 39 8 30 19-6 8-18 14-25 14-8 0-14 4-14 9 0 6-8 10-17 10-10 1-36 3-58 7l-40 6 25-18zm-15-64c-3-5-10-10-16-10-5 0-9 5-9 10 0 6 7 10 16 10 8 0 12-4 9-10zM867 1359c-11-12-16-28-12-40 9-28-22-61-55-58-50 3-57 0-36-16 11-8 14-15 8-15-7 0-12-7-12-15 0-19 14-19 54 0 43 20 69 67 61 105-5 23-3 30 9 30 9 0 16 7 16 15 0 21-12 19-33-6z" class="color000 svgShape"/><path d="M1030 1340c0-5 5-10 11-10 5 0 7 5 4 10-3 6-8 10-11 10-2 0-4-4-4-10zM1127 1339c7-7 15-10 18-7 3 3-2 9-12 12-14 6-15 5-6-5zM1204 1338c-3-4 4-8 15-8 11 0 22 4 26 9 3 6-4 9-16 8-11-1-23-5-25-9zM985 1270c-3-5 3-17 14-27 29-25 19-30-46-22-59 7-153-14-153-35 0-8 34-4 75 9 19 6 19 6 3-8-10-8-18-22-18-31 0-9-6-16-12-16-9 0-8-4 2-10 19-13 8-13-24 0-16 6-26 6-26 0 0-5-7-7-15-4-9 4-15 1-15-7 0-7-7-21-16-30-16-17-15-18 15-9 17 5 31 7 31 5 0-2-26-18-57-36-63-36-82-55-83-82 0-29-37-93-67-117-15-12-59-36-98-54-59-28-131-76-113-76 3 0-21-50-53-111-32-61-59-120-59-130 0-11-5-19-11-19-8 0-10 15-7 44 5 41 4 44-28 60-23 10-32 20-28 31 4 8 1 15-4 15-19 0-24-20-10-37 11-14 11-16-1-8-11 6-13 3-7-16 5-13 8-32 9-41 1-10 5-19 9-19 20-3 24-5 37-13 11-7 7-12-15-22l-29-14 28 5c24 5 27 4 15-9-7-7-16-12-21-9-4 2-23-5-43-17-25-16-33-27-29-39 4-9 11-72 15-141 10-158 24-199 65-184 14 6 16 19 14 78-3 62 0 78 25 131 17 33 40 73 53 88 18 23 21 32 12 49-18 34 44 113 166 210 39 30 79 65 89 77 11 11 27 21 37 21 16 0 95 47 144 85 40 31 46 11 15-53-21-43-29-182-11-182 24 0 41 14 41 35 0 36 56 97 121 132 33 18 67 39 75 48 23 22 109 45 210 54 60 6 102 16 128 30 21 12 59 24 84 28 26 3 55 10 65 15 23 12 22 35-4 43-16 5-19 12-15 30 5 18-2 28-37 51-23 16-58 36-77 44-61 27-158 79-164 89-4 5-21 13-38 16l-32 8 29 23c17 14 47 27 67 30 21 4 35 10 32 15-7 12-54 12-54 0 0-13-63-7-68 7-4 14-32 16-32 2 0-5-10-10-22-10-18 0-20 2-8 10 13 8 13 9 0 14-41 13-69 15-75 6zm108-90c-9-16-28-42-40-56-13-15-23-37-24-48 0-12-3-16-5-10-3 7-14 10-24 7-11-3-20-1-20 5 0 5 11 13 25 16 25 6 25 6 5 26-22 22-25 37-11 58 7 11 10 10 15-3 5-15 10-14 37 9 17 14 37 26 45 26 13 0 12-5-3-30zm-131-77c1-27 5-52 9-58 4-5 10-25 14-42 3-18 9-33 13-33 3 0 20 14 37 30 28 27 35 29 59 20 15-5 38-10 52-10 33 0 31-26-3-33-16-3-52-24-82-47-34-26-62-40-73-37-11 3-31-5-48-20-16-13-34-22-39-19-5 3-12-5-15-19-4-15-13-25-24-25-16 1-16 1 1 11 9 5 17 16 17 24 0 7 7 21 16 29 14 15 13 17-11 26-14 5-31 10-37 10-6 0-8 3-5 7 4 3 0 17-8 30-14 21-14 23 0 23 12 0 15 6 9 23-4 12-11 25-16 28-12 7 3 39 26 58 13 11 16 9 22-13 3-14 10-26 14-26 5 0 5 12 0 28-17 58-16 74 5 66 11-5 13-2 8 12-5 13-3 16 9 11 11-4 18 2 23 16l6 22 9-22c5-12 10-44 12-70zm333-133c-3-5-12-7-20-4-8 3-38 1-66-5-53-12-75-7-49 9 20 13 143 13 135 0zm130-40c3-5 1-10-4-10-6 0-11 5-11 10 0 6 2 10 4 10 3 0 8-4 11-10zm-555-51c0-5-4-9-10-9-5 0-10 7-10 16 0 8 5 12 10 9 6-3 10-10 10-16zm-643-375c-3-3-12-4-19-1-8 3-5 6 6 6 11 1 17-2 13-5z" class="color000 svgShape"/><path d="M846 1042c-3-5 1-18 9-28 14-18 14-18 15 3 0 23-15 39-24 25zM901 943c0-6-9-13-18-16-17-4-17-4 0-12 22-9 30-2 24 22-3 10-5 13-6 6zM1266 1241c-3-5 1-11 9-15 8-3 15-1 15 4 0 13-18 22-24 11zM765 1160c-3-5-1-10 4-10 6 0 11 5 11 10 0 6-2 10-4 10-3 0-8-4-11-10zM159 677c15-19 41-23 41-7 0 6-4 10-9 10-5 0-18 3-28 7-16 6-16 5-4-10zM165 630c3-5 8-10 11-10 2 0 4 5 4 10 0 6-5 10-11 10-5 0-7-4-4-10zM235 612c0-37 19-37 22 0 1 16-3 28-10 28-7 0-12-13-12-28z" class="color000 svgShape"/></g></svg></svg>